<svg width="65" height="65" viewBox="0 0 65 65" fill="none" xmlns="http://www.w3.org/2000/svg">
<path d="M24.1129 42.1188V31.9725C24.1129 29.949 22.4669 28.3028 20.4435 28.3028C19.8785 28.3028 19.349 28.4423 18.871 28.6708V22.5361C18.871 20.5125 17.225 18.8664 15.2016 18.8664C14.6365 18.8664 14.1071 19.0059 13.629 19.2344V16.2452C13.629 14.2216 11.9831 12.5755 9.95968 12.5755C8.25605 12.5755 6.83129 13.7498 6.42137 15.3267C5.77347 14.9178 5.01339 14.6724 4.19355 14.6724C1.88081 14.6724 0 16.5534 0 18.8664V36.6907C0 36.8658 0.0440322 37.0388 0.127903 37.193L6.41823 48.7264C6.46645 48.8134 6.52726 48.8952 6.5975 48.9654L14.8053 57.1741C15.3903 57.7591 15.7258 58.5696 15.7258 59.3979V63.9515C15.7258 64.5303 16.1955 65 16.7742 65H29.3548C29.9335 65 30.4032 64.5303 30.4032 63.9515V50.9261C30.4032 49.5935 29.9021 48.3227 28.9931 47.3487L24.1129 42.1188ZM20.4435 30.3998C21.3106 30.3998 22.0161 31.1054 22.0161 31.9725V39.8719L18.871 36.502V31.9725C18.871 31.1054 19.5765 30.3998 20.4435 30.3998ZM15.2016 20.9634C16.0686 20.9634 16.7742 21.669 16.7742 22.5361V34.2551L16.0655 33.496C15.4731 32.8617 14.6355 32.4968 13.7664 32.4968H13.629V22.5361C13.629 21.669 14.3346 20.9634 15.2016 20.9634ZM8.3871 16.2452C8.3871 15.3781 9.09266 14.6724 9.95968 14.6724C10.8267 14.6724 11.5323 15.3781 11.5323 16.2452V33.3125C11.0668 33.7319 10.7198 34.2824 10.5698 34.9125L8.3871 32.134V16.2452ZM28.3064 62.903H17.8226V59.3979C17.8226 57.9982 17.2774 56.6813 16.2877 55.6915L8.18685 47.5898L2.09677 36.4234V18.8664C2.09677 17.7099 3.03718 16.7694 4.19355 16.7694C5.34992 16.7694 6.29032 17.7099 6.29032 18.8664V32.4968C6.29032 32.7316 6.36895 32.9592 6.51468 33.1448L18.0469 47.8236L19.695 46.5287L12.5806 37.4719V35.6423C12.5806 35.0645 13.0514 34.5938 13.629 34.5938H13.7664C14.0557 34.5938 14.3346 34.7154 14.5327 34.9261L27.4615 48.7788C28.0056 49.3639 28.3064 50.1261 28.3064 50.9261V62.903Z" fill="white"/>
<path d="M60.8064 14.6724C59.9866 14.6724 59.2265 14.9178 58.5786 15.3267C58.1687 13.7498 56.7439 12.5755 55.0403 12.5755C53.0169 12.5755 51.371 14.2216 51.371 16.2452V19.2344C50.8929 19.0059 50.3635 18.8664 49.7984 18.8664C47.775 18.8664 46.129 20.5125 46.129 22.5361V28.6708C45.651 28.4423 45.1215 28.3028 44.5564 28.3028C42.5331 28.3028 40.8871 29.949 40.8871 31.9725V42.1188L36.0069 47.3487C35.0979 48.3227 34.5968 49.5935 34.5968 50.9261V63.9515C34.5968 64.5303 35.0665 65 35.6452 65H48.2258C48.8045 65 49.2742 64.5303 49.2742 63.9515V59.3979C49.2742 58.5696 49.6097 57.7602 50.1947 57.1741L58.4025 48.9654C58.4727 48.8952 58.5335 48.8134 58.5818 48.7264L64.8721 37.193C64.956 37.0388 65 36.8658 65 36.6907V18.8664C65 16.5534 63.1192 14.6724 60.8064 14.6724ZM53.4677 16.2452C53.4677 15.3781 54.1733 14.6724 55.0403 14.6724C55.9073 14.6724 56.6129 15.3781 56.6129 16.2452V32.134L54.4302 34.9115C54.2802 34.2813 53.9332 33.7319 53.4677 33.3115V16.2452ZM48.2258 22.5361C48.2258 21.669 48.9314 20.9634 49.7984 20.9634C50.6654 20.9634 51.371 21.669 51.371 22.5361V32.4968H51.2336C50.3645 32.4968 49.5269 32.8617 48.9345 33.496L48.2258 34.2562V22.5361ZM42.9839 31.9725C42.9839 31.1054 43.6894 30.3998 44.5564 30.3998C45.4235 30.3998 46.129 31.1054 46.129 31.9725V36.502L42.9839 39.8719V31.9725ZM62.9032 36.4234L56.8131 47.5888L48.7123 55.6905C47.7226 56.6813 47.1774 57.9971 47.1774 59.3979V62.903H36.6935V50.9261C36.6935 50.1261 36.9944 49.3639 37.5396 48.7798L50.4683 34.9272C50.6654 34.7154 50.9443 34.5938 51.2336 34.5938H51.371C51.9486 34.5938 52.4194 35.0645 52.4194 35.6423V37.4719L45.305 46.5277L46.9531 47.8226L58.4853 33.1437C58.631 32.9592 58.7097 32.7316 58.7097 32.4968V18.8664C58.7097 17.7099 59.6501 16.7694 60.8064 16.7694C61.9628 16.7694 62.9032 17.7099 62.9032 18.8664V36.4234Z" fill="white"/>
<path d="M48.2069 8.63103C48.0308 5.8022 46.6123 3.25332 44.3174 1.6376C40.9678 -0.719412 36.443 -0.513908 33.3136 2.13668L32.5 2.82658L31.6854 2.13668C28.556 -0.513908 24.0322 -0.719412 20.6815 1.6376C18.3866 3.25332 16.9681 5.8022 16.792 8.63103C16.6148 11.4682 17.7094 14.1828 19.7956 16.0795L31.7944 26.9932C31.9947 27.1746 32.2473 27.2659 32.5 27.2659C32.7527 27.2659 33.0053 27.1746 33.2056 26.9932L45.2044 16.0795C47.2896 14.1828 48.3841 11.4682 48.2069 8.63103ZM32.5 24.8019L21.2068 14.5298C19.5944 13.063 18.7483 10.9608 18.8856 8.76314C19.0219 6.57284 20.1175 4.60063 21.8893 3.35398C23.0834 2.51309 24.4715 2.09788 25.8574 2.09788C27.4531 2.09788 29.0456 2.64834 30.3298 3.73772L31.8217 5.0022C32.2127 5.33248 32.7862 5.33248 33.1773 5.0022L34.6702 3.73667C37.0699 1.70365 40.5422 1.54428 43.1107 3.35293C44.8825 4.59958 45.9781 6.57179 46.1144 8.76209C46.2517 10.9608 45.4057 13.063 43.7932 14.5288L32.5 24.8019Z" fill="white"/>
</svg>
