<svg width="82" height="51" viewBox="0 0 82 51" fill="none" xmlns="http://www.w3.org/2000/svg">
<path d="M70.9105 22.5643C72.5439 21.4388 73.7705 19.8294 74.412 17.97C75.0535 16.1106 75.0765 14.0981 74.4776 12.225C73.8788 10.3518 72.6893 8.71561 71.082 7.55413C69.4747 6.39266 67.5334 5.76642 65.5401 5.76642C63.5469 5.76642 61.6056 6.39266 59.9983 7.55413C58.391 8.71561 57.2015 10.3518 56.6026 12.225C56.0038 14.0981 56.0268 16.1106 56.6683 17.97C57.3097 19.8294 58.5363 21.4388 60.1697 22.5643C58.1333 23.2489 56.2544 24.3235 54.6412 25.7264C52.4197 23.8831 49.8357 22.5119 47.0511 21.6988C49.2703 20.379 50.9898 18.3794 51.9467 16.0058C52.9035 13.6322 53.0452 11.0152 52.3499 8.55483C51.6546 6.09445 50.1607 3.92609 48.0966 2.38122C46.0324 0.83636 43.5115 0 40.9194 0C38.3272 0 35.8064 0.83636 33.7422 2.38122C31.678 3.92609 30.1841 6.09445 29.4889 8.55483C28.7936 11.0152 28.9352 13.6322 29.8921 16.0058C30.849 18.3794 32.5684 20.379 34.7876 21.6988C32.0325 22.5087 29.4738 23.8634 27.2679 25.6802C25.6685 24.3025 23.8099 23.2478 21.7979 22.5759C23.4238 21.4635 24.6443 19.8661 25.2795 18.0189C25.9148 16.1718 25.9313 14.1725 25.3266 12.3154C24.722 10.4583 23.528 8.84154 21.9207 7.70322C20.3133 6.56491 18.3775 5.96517 16.3982 5.99231C15.1749 5.98319 13.9618 6.21194 12.8284 6.66545C11.695 7.11897 10.6636 7.78834 9.79312 8.63523C8.92268 9.48212 8.23038 10.4899 7.75586 11.6008C7.28134 12.7117 7.03393 13.904 7.0278 15.1092C7.02549 16.5803 7.3882 18.0296 8.08434 19.331C8.78048 20.6323 9.78895 21.7463 11.0219 22.5759C7.81253 23.657 5.02558 25.698 3.04977 28.4142C1.07396 31.1305 0.00780458 34.3866 0 37.7284V38.7671C0 38.7761 0.0018178 38.7851 0.0053496 38.7935C0.0088814 38.8019 0.014058 38.8096 0.020584 38.816C0.0271099 38.8224 0.0348573 38.8275 0.0433838 38.831C0.0519103 38.8345 0.061049 38.8363 0.070278 38.8363H19.9121C19.8 39.7207 19.7413 40.6109 19.7364 41.5021V42.5869C19.7488 44.8284 20.6637 46.9734 22.28 48.5508C23.8964 50.1283 26.0821 51.0091 28.3572 50.9999H53.505C54.6325 51.006 55.7502 50.7932 56.7942 50.3737C57.8382 49.9542 58.7881 49.3362 59.5897 48.5549C60.3913 47.7737 61.0289 46.8446 61.4661 45.8206C61.9032 44.7966 62.1314 43.6978 62.1375 42.5869V41.5021C62.1346 40.6104 62.072 39.7199 61.9501 38.8363H81.8622C81.8715 38.8531 81.8872 38.8656 81.9059 38.871C81.9246 38.8764 81.9447 38.8743 81.9618 38.8651C81.9788 38.856 81.9915 38.8405 81.997 38.8221C82.0025 38.8037 82.0004 38.7839 81.991 38.7671V37.7284C81.9659 34.3813 80.8863 31.1245 78.9014 28.4081C76.9165 25.6917 74.1242 23.6497 70.9105 22.5643ZM58.7759 15.0861C58.7599 13.769 59.1401 12.4767 59.8686 11.3722C60.597 10.2676 61.6411 9.40032 62.8691 8.87959C64.0971 8.35885 65.4542 8.20801 66.7691 8.44608C68.084 8.68414 69.2979 9.30046 70.2578 10.2173C71.2178 11.1342 71.8806 12.3105 72.163 13.5981C72.4453 14.8856 72.3343 16.2267 71.8442 17.4522C71.354 18.6777 70.5065 19.7328 69.4086 20.4844C68.3107 21.236 67.0115 21.6506 65.6748 21.6757H65.4054C63.6437 21.6545 61.9611 20.9516 60.7208 19.7188C59.4804 18.486 58.7819 16.822 58.7759 15.0861ZM31.6251 11.7625C31.6076 9.97603 32.1225 8.22373 33.106 6.72281C34.0895 5.22188 35.4985 4.0383 37.1582 3.31876C38.8179 2.59922 40.6555 2.37535 42.4431 2.67489C44.2307 2.97443 45.8898 3.78422 47.2148 5.0039C48.5398 6.22357 49.4724 7.79952 49.897 9.53641C50.3217 11.2733 50.2197 13.0948 49.6037 14.7751C48.9877 16.4554 47.8848 17.9207 46.4317 18.9894C44.9786 20.0581 43.2391 20.6831 41.4289 20.7871H40.363C38.0135 20.6636 35.8005 19.6606 34.1764 17.9833C32.5523 16.3059 31.6397 14.0807 31.6251 11.7625ZM9.61638 15.0861C9.60043 13.769 9.98065 12.4767 10.7091 11.3722C11.4375 10.2676 12.4816 9.40032 13.7096 8.87959C14.9376 8.35885 16.2947 8.20801 17.6096 8.44608C18.9245 8.68414 20.1384 9.30046 21.0984 10.2173C22.0583 11.1342 22.7212 12.3105 23.0035 13.5981C23.2858 14.8856 23.1749 16.2267 22.6847 17.4522C22.1945 18.6777 21.3471 19.7328 20.2491 20.4844C19.1512 21.236 17.852 21.6506 16.5153 21.6757H16.2577C14.4958 21.6516 12.8137 20.9482 11.5721 19.7163C10.3306 18.4844 9.62846 16.8222 9.61638 15.0861ZM20.3572 36.2859H2.62371C3.00786 32.9742 4.61143 29.9164 7.13065 27.6916C9.64987 25.4669 12.9098 24.2298 16.2928 24.2146H16.4802C19.7186 24.2293 22.8487 25.3649 25.3235 27.4228C22.9515 29.9284 21.2454 32.9732 20.3572 36.2859ZM59.5021 42.5869C59.4928 44.1551 58.8524 45.6555 57.7215 46.7589C56.5905 47.8624 55.0615 48.4787 53.4699 48.4725H28.322C27.531 48.4801 26.7462 48.3338 26.0127 48.0418C25.2792 47.7499 24.6114 47.3181 24.0477 46.7713C23.484 46.2244 23.0354 45.5733 22.7277 44.8552C22.42 44.1372 22.2593 43.3663 22.2547 42.5869V41.5021C22.2839 36.7532 24.19 32.2023 27.5687 28.8153C30.9473 25.4282 35.5326 23.4716 40.3513 23.3606H41.4523C46.2629 23.4834 50.8363 25.4452 54.2049 28.831C57.5736 32.2168 59.4733 36.761 59.5021 41.5021V42.5869ZM61.4347 36.2859C60.5584 32.9954 58.8682 29.9701 56.5153 27.4805C59.0049 25.3865 62.1671 24.2294 65.4406 24.2146H65.5928C68.9827 24.2188 72.2525 25.4512 74.7796 27.6772C77.3068 29.9033 78.9146 32.9673 79.297 36.2859H61.4347Z" fill="white"/>
</svg>
