<svg width="73" height="71" viewBox="0 0 73 71" fill="none" xmlns="http://www.w3.org/2000/svg">
<path d="M68.1925 6.44877L63.8489 5.81782L61.9062 1.88233C61.2518 0.556396 59.3604 0.556952 58.7066 1.88233L56.7639 5.81782L52.4203 6.44877C50.9572 6.6615 50.373 8.46023 51.4312 9.49158L54.5746 12.555L53.8322 16.8809C53.5816 18.3432 55.1187 19.4464 56.4214 18.7615L60.3061 16.7188L64.1914 18.7615C65.4991 19.4492 67.0301 18.3377 66.7801 16.8809L66.0382 12.555L69.1816 9.49158C70.2398 8.46023 69.655 6.6615 68.1925 6.44877ZM64.4119 11.1539C63.9909 11.5643 63.7993 12.1546 63.899 12.7332L64.5506 16.5345L61.1365 14.7396C60.6169 14.4662 59.9959 14.4662 59.4757 14.7396L56.0616 16.5345L56.7138 12.7332C56.813 12.1546 56.6214 11.5643 56.2009 11.1539L53.4384 8.4619L57.2557 7.90725C57.8366 7.82316 58.339 7.45784 58.5991 6.93159L60.3061 3.47279L62.0132 6.93103C62.2727 7.45784 62.7751 7.8226 63.3565 7.90725L67.1738 8.4619L64.4119 11.1539Z" fill="white"/>
<path d="M21.5689 9.49158C22.6271 8.45967 22.0423 6.6615 20.5797 6.44877L16.2361 5.81782L14.2935 1.88233C13.6385 0.555277 11.7471 0.556948 11.0933 1.88233L9.15062 5.81782L4.807 6.44877C3.34446 6.6615 2.76022 8.46023 3.81842 9.49158L6.96127 12.555L6.21942 16.8809C5.9699 18.3371 7.49984 19.4492 8.8081 18.7615L12.6934 16.7194L16.5786 18.7615C17.8863 19.4492 19.4174 18.3377 19.1673 16.8809L18.4255 12.5555L21.5689 9.49158ZM16.7992 11.1539C16.3781 11.5643 16.1865 12.1546 16.2857 12.7332L16.9378 16.5345L13.5232 14.7396C13.0036 14.4662 12.3831 14.4662 11.863 14.7396L8.44887 16.5345L9.10106 12.7332C9.20019 12.154 9.0086 11.5637 8.58811 11.1539L5.82565 8.4619L9.64296 7.90725C10.2244 7.8226 10.7268 7.45784 10.9863 6.93103L12.6934 3.47279L14.401 6.93159C14.6611 7.45784 15.1629 7.8226 15.7443 7.90725L19.5611 8.4619L16.7992 11.1539Z" fill="white"/>
<path d="M48.1992 8.29763L41.4396 7.3164L38.4159 1.19013C37.6329 -0.396988 35.3672 -0.396431 34.5841 1.19013L31.5621 7.31528L24.8008 8.29763C23.0492 8.55212 22.3491 10.7061 23.6162 11.9413L28.5084 16.7082L27.3533 23.4409C27.0542 25.1851 28.8866 26.5166 30.4538 25.693L34.5023 23.5646C35.0252 23.29 35.2263 22.6435 34.9512 22.1206C34.6766 21.5982 34.03 21.3972 33.507 21.6717L29.4613 23.8024L30.6164 17.0696C30.7351 16.3763 30.5056 15.6691 30.0016 15.1785L25.1082 10.4138L31.8696 9.43144C32.5658 9.33064 33.1667 8.89349 33.478 8.2631L36.4978 2.13683L39.5215 8.26254C39.8328 8.89293 40.4343 9.33009 41.1305 9.43144L47.8901 10.4099L42.9979 15.1785C42.4939 15.6691 42.2644 16.3763 42.3836 17.0691L43.5415 23.8001L39.4925 21.6717C38.969 21.3966 38.3229 21.5982 38.0483 22.1206C37.7732 22.6435 37.9743 23.29 38.4972 23.5646L42.5457 25.693C44.1157 26.5177 45.9447 25.1806 45.6462 23.4409L44.4905 16.7099L49.3827 11.9413C50.6509 10.7056 49.9503 8.55212 48.1992 8.29763Z" fill="white"/>
<path d="M66.9009 30.2695C66.4832 29.8524 65.8065 29.8524 65.3888 30.2695C64.9711 30.6877 64.9711 31.3643 65.3888 31.782L70.7868 37.1793L63.1438 44.8219C62.6548 44.333 49.2424 30.9221 49.0202 30.6999L56.6632 23.0573L61.86 28.2535C62.2777 28.6712 62.9544 28.6712 63.3721 28.2535C63.7898 27.8359 63.7898 27.1587 63.3721 26.7411L58.0494 21.4195C57.2853 20.6549 56.0411 20.6549 55.2764 21.4195L47.3817 29.3133C46.6175 30.0779 46.6175 31.3214 47.3817 32.086L48.3045 33.0088C47.6763 33.6503 46.2093 35.2964 45.1394 35.2964C45.1372 35.2964 45.1355 35.2964 45.1338 35.2964C41.1316 35.2775 41.6367 35.0982 36.5218 37.1024L33.4357 35.8934C33.4285 35.8901 33.4212 35.8873 33.4134 35.8845C33.3973 35.8789 31.761 35.2864 30.0879 35.2864C30.0846 35.2864 30.0812 35.2864 30.0779 35.2864C30.0684 35.2864 30.059 35.2859 30.0489 35.2859C29.9832 35.287 27.9103 35.2964 27.9103 35.2964C27.908 35.2964 27.9064 35.2964 27.9047 35.2964C26.8465 35.2964 25.4174 33.6987 24.7173 32.9865C25.5984 32.1055 26.1921 31.6901 26.1921 30.6994C26.1921 30.1759 25.9882 29.6836 25.6179 29.3127L17.7231 21.4189C16.9585 20.6549 15.7148 20.6549 14.9501 21.4189L0.574769 35.7932C-0.19159 36.5595 -0.19159 37.7996 0.574769 38.5659L8.46948 46.4597C9.23417 47.2243 10.4778 47.2243 11.2425 46.4597L12.0885 45.6138C14.2545 47.7773 14.4561 47.7077 14.4923 49.8177C14.5157 51.2005 14.5452 52.9212 16.4611 54.8336C21.8368 60.2003 26.1096 64.4805 31.6173 69.9875C33.3494 71.7194 36.3213 71.1547 37.2708 68.8642L38.0901 69.684C39.9085 71.5016 43.038 70.7816 43.8395 68.3051C45.106 68.8514 46.6348 68.6075 47.6679 67.5745C48.7189 66.5242 48.9394 64.9917 48.4009 63.7465C48.9049 63.5828 49.3783 63.301 49.7776 62.9011C50.4075 62.2696 50.7384 61.4532 50.7779 60.6246C50.8414 60.5684 56.5223 54.8937 56.5824 54.8336C58.4989 52.9207 58.5284 51.2005 58.5518 49.8177C58.5891 47.6526 58.8531 47.7233 60.9333 45.6355C61.7397 46.4419 62.1608 47.0339 63.1438 47.0339C63.6679 47.0339 64.1602 46.8301 64.5306 46.4597L72.4247 38.5659C73.1917 37.7996 73.1917 36.5595 72.4253 35.7932L66.9009 30.2695ZM9.85572 44.8219L2.21275 37.1798L16.3363 23.0573L23.9799 30.6999C23.6284 31.0508 10.5268 44.1509 9.85572 44.8219ZM48.2644 61.3903C47.7587 61.8965 46.9439 61.906 46.4248 61.4232L35.7103 50.5634C35.2954 50.1429 34.6187 50.1385 34.1982 50.5534C33.7777 50.9677 33.7732 51.6449 34.1881 52.0653C36.2795 54.1859 44.0467 62.0747 46.1558 64.1831C46.6766 64.7038 46.6743 65.5447 46.1558 66.0626C45.6379 66.5805 44.7946 66.5805 44.2767 66.0626C42.0494 63.8356 44.578 66.3933 32.1514 53.7566C31.7376 53.335 31.0603 53.3294 30.6393 53.7438C30.2182 54.1575 30.2127 54.8347 30.6265 55.2557C30.6298 55.259 41.4819 66.2925 41.4819 66.2925C42.0004 66.8104 42.0004 67.6536 41.4819 68.172C40.964 68.6899 40.1213 68.6899 39.6028 68.1715C37.7236 66.2931 39.5616 68.172 28.8415 57.1363C28.4299 56.7131 27.7532 56.703 27.3294 57.1146C26.9055 57.5261 26.8961 58.2027 27.3076 58.6265L34.8364 66.3772C34.9835 66.6317 35.3945 66.8739 35.3939 67.5378C35.3939 67.8919 35.2558 68.2249 35.0052 68.4755C34.4883 68.9934 33.6468 68.9929 33.1294 68.4755C19.795 55.1421 29.9938 65.3225 17.9721 53.32C16.6688 52.0191 16.6521 51.0317 16.6304 49.7815C16.5786 46.7337 15.7738 46.2721 13.6012 44.1019L23.2052 34.4984C24.2728 35.5877 25.9103 37.4354 27.9041 37.4354H27.9203C29.541 37.4276 29.9387 37.426 30.04 37.4254H30.0896C31.306 37.4254 32.5669 37.8548 32.671 37.891L33.5905 38.2513L28.6454 40.1881C24.8498 41.6009 26.0874 47.6214 30.7145 46.8657L35.0186 46.2837L48.2577 59.522C48.7751 60.0376 48.7779 60.8758 48.2644 61.3903ZM57.9263 45.6172C56.4599 47.0812 56.4343 48.5787 56.4137 49.7815C56.3925 51.0317 56.3752 52.0191 55.0714 53.32L50.0728 58.3113C50.0255 58.264 36.4516 44.6916 36.1564 44.3965C35.9331 44.1732 35.5989 44.0473 35.2569 44.093L30.4126 44.7484C30.402 44.7495 30.3909 44.7512 30.3798 44.7529C28.3135 45.0976 27.9765 42.7141 29.3967 42.1901C29.4034 42.1879 29.4101 42.1851 29.4168 42.1829C42.6682 36.991 40.7273 37.4137 45.1232 37.4349H45.1394C47.0191 37.4349 48.5206 35.8472 49.8166 34.5207L59.4206 44.1236C59.3393 44.2055 58.0071 45.5359 57.9263 45.6172Z" fill="white"/>
</svg>
