<svg width="62" height="62" viewBox="0 0 62 62" fill="none" xmlns="http://www.w3.org/2000/svg">
<path d="M9.26603 25.5794H7.46488V23.7782C7.46488 22.7835 6.65844 21.9771 5.66372 21.9771C4.669 21.9771 3.86257 22.7835 3.86257 23.7782V25.5794H2.06141C1.06669 25.5794 0.260254 26.3858 0.260254 27.3805C0.260254 28.3753 1.06669 29.1817 2.06141 29.1817H3.86257V30.9828C3.86257 31.9776 4.669 32.784 5.66372 32.784C6.65844 32.784 7.46488 31.9776 7.46488 30.9828V29.1817H9.26603C10.2608 29.1817 11.0672 28.3753 11.0672 27.3805C11.0672 26.3858 10.2608 25.5794 9.26603 25.5794Z" fill="white"/>
<path d="M59.9385 54.3979H58.1374V52.5967C58.1374 51.602 57.331 50.7956 56.3362 50.7956C55.3415 50.7956 54.5351 51.602 54.5351 52.5967V54.3979H52.7339C51.7392 54.3979 50.9328 55.2043 50.9328 56.199C50.9328 57.1937 51.7392 58.0002 52.7339 58.0002H54.5351V59.8013C54.5351 60.7961 55.3415 61.6025 56.3362 61.6025C57.331 61.6025 58.1374 60.7961 58.1374 59.8013V58.0002H59.9385C60.9333 58.0002 61.7397 57.1937 61.7397 56.199C61.7397 55.2043 60.9333 54.3979 59.9385 54.3979Z" fill="white"/>
<path d="M59.9385 43.711C60.9333 43.711 61.7397 42.9046 61.7397 41.9099C61.7397 40.9151 60.9333 40.1087 59.9385 40.1087C58.9438 40.1087 58.1374 40.9151 58.1374 41.9099C58.1374 42.9046 58.9438 43.711 59.9385 43.711Z" fill="white"/>
<path d="M2.06141 43.5909C3.05616 43.5909 3.86257 42.7845 3.86257 41.7898C3.86257 40.795 3.05616 39.9886 2.06141 39.9886C1.06666 39.9886 0.260254 40.795 0.260254 41.7898C0.260254 42.7845 1.06666 43.5909 2.06141 43.5909Z" fill="white"/>
<path d="M43.7265 26.6178L61.3812 3.00261C61.7893 2.45662 61.8543 1.72692 61.5489 1.1174C61.2435 0.508014 60.6203 0.123047 59.9385 0.123047H42.5274C41.9557 0.123047 41.4181 0.394421 41.0785 0.854196L31.0245 14.4691L20.919 0.850954C20.5792 0.39298 20.0428 0.123047 19.4726 0.123047H2.06141C1.37973 0.123047 0.756412 0.508014 0.451056 1.1174C0.1457 1.72692 0.210662 2.45662 0.618804 3.00261L18.2735 26.6177C13.9442 30.2551 11.1873 35.7061 11.1873 41.7898C11.1873 52.7145 20.0752 61.6025 31 61.6025C41.9247 61.6025 50.8127 52.7145 50.8127 41.7898C50.8127 35.7061 48.0557 30.2551 43.7265 26.6178ZM40.7687 24.558C39.7891 24.0005 38.7577 23.5244 37.6836 23.1383L52.0796 3.72536H56.3431L40.7687 24.558ZM43.4362 3.72536H47.5947L35.3273 20.2679L33.2688 17.4939L43.4362 3.72536ZM32.1345 22.0103C30.8223 21.9359 29.4921 21.9852 28.1043 22.1892L14.4061 3.72536H18.5662C18.9727 4.27675 32.1121 21.9801 32.1345 22.0103ZM5.65676 3.72536H9.92057L24.3217 23.1364C23.2456 23.5228 22.2125 23.9995 21.2313 24.5579L5.65676 3.72536ZM31 58.0002C22.0616 58.0002 14.7896 50.7282 14.7896 41.7898C14.7896 32.8514 22.0616 25.5794 31 25.5794C39.9384 25.5794 47.2104 32.8514 47.2104 41.7898C47.2104 50.7282 39.9384 58.0002 31 58.0002Z" fill="white"/>
<path d="M27.4416 35.5205V48.5616H24.4235V37.9424H21.8153V35.5205H27.4416Z" fill="white"/>
<path d="M34.1783 40.4202C36.0165 40.4202 37.3703 40.7866 38.2397 41.5194C39.1215 42.2522 39.5624 43.2334 39.5624 44.463C39.5624 45.2579 39.3637 45.9844 38.9662 46.6427C38.5688 47.2885 37.9602 47.8102 37.1405 48.2076C36.3332 48.5927 35.3334 48.7852 34.141 48.7852C33.2219 48.7852 32.3153 48.6672 31.421 48.4312C30.5392 48.1828 29.7878 47.835 29.1668 47.3879L30.3591 45.0778C30.8559 45.4504 31.4272 45.7422 32.0731 45.9534C32.7189 46.1521 33.3834 46.2515 34.0665 46.2515C34.8241 46.2515 35.4203 46.1024 35.855 45.8043C36.2897 45.5063 36.5071 45.0902 36.5071 44.5561C36.5071 43.9972 36.2773 43.5749 35.8177 43.2893C35.3706 43.0036 34.5882 42.8608 33.4704 42.8608H30.1356L30.8062 35.5205H38.7613V37.9424H33.3213L33.1164 40.4202H34.1783Z" fill="white"/>
</svg>
