<svg width="38" height="34" viewBox="0 0 38 34" fill="none" xmlns="http://www.w3.org/2000/svg">
<path d="M35.3313 0H2.19905C0.986489 0 0 0.947029 0 2.11109V23.2219C0 24.386 0.986489 25.333 2.19905 25.333H13.744V29.5552H11.8015C11.1943 29.5552 10.702 30.0278 10.702 30.6107C10.702 31.1937 11.1943 31.6663 11.8015 31.6663H19.8912C20.0689 32.8582 21.1353 33.7773 22.4205 33.7773H30.5032C31.9124 33.7773 33.059 32.6725 33.059 31.3144V25.333H35.3313C36.5439 25.333 37.5304 24.386 37.5304 23.2219V2.11109C37.5304 0.947029 36.5439 0 35.3313 0ZM35.3313 2.11109V18.9997H33.059V15.1294C33.059 13.7714 31.9124 12.6665 30.5032 12.6665H22.4205C21.0113 12.6665 19.8647 13.7714 19.8647 15.1294V18.9997H2.19905V2.11109H35.3313ZM30.8599 16.8887H22.0638V15.1294C22.0638 14.9354 22.2238 14.7776 22.4205 14.7776H30.5032C30.6999 14.7776 30.8599 14.9354 30.8599 15.1294V16.8887ZM22.0638 18.9997H30.8599V27.4441H22.0638V18.9997ZM2.19905 21.1109H19.8647V23.2219H2.19905V21.1109ZM15.9431 25.333H19.8647V29.5552H15.9431V25.333ZM30.5032 31.6663H22.4205C22.2238 31.6663 22.0638 31.5084 22.0638 31.3144V29.5552H30.8599V31.3144C30.8599 31.5084 30.6998 31.6663 30.5032 31.6663ZM33.059 23.2219V21.1109H35.3313V23.2219H33.059Z" fill="white"/>
</svg>
