<svg width="17" height="14" viewBox="0 0 17 14" fill="none" xmlns="http://www.w3.org/2000/svg">
<path fill-rule="evenodd" clip-rule="evenodd" d="M15.3 0H1.7C0.765 0 0 0.7875 0 1.75V12.25C0 13.2125 0.765 14 1.7 14H15.3C16.235 14 17 13.2125 17 12.25V1.75C17 0.7875 16.235 0 15.3 0ZM14.96 3.71875L9.401 7.2975C8.8485 7.65625 8.1515 7.65625 7.599 7.2975L2.04 3.71875C1.8275 3.57875 1.7 3.3425 1.7 3.08875C1.7 2.5025 2.3205 2.1525 2.805 2.45875L8.5 6.125L14.195 2.45875C14.6795 2.1525 15.3 2.5025 15.3 3.08875C15.3 3.3425 15.1725 3.57875 14.96 3.71875Z" fill="#FF545F"/>
</svg>
