<svg width="17" height="18" viewBox="0 0 17 18" fill="none" xmlns="http://www.w3.org/2000/svg">
<path d="M16.6694 14.3129L13.1094 11.8001C12.7861 11.5723 12.3516 11.647 12.1129 11.9714L11.0762 13.3825C10.8535 13.6887 10.4529 13.7767 10.1336 13.5895C9.43014 13.1752 8.59831 12.7851 6.76293 10.8392C4.92754 8.89341 4.55677 8.01514 4.16547 7.27033C3.98867 6.9322 4.07177 6.50805 4.36097 6.27229L5.6937 5.17462C6.00006 4.92192 6.07062 4.46184 5.85549 4.11946L3.48226 0.350012C3.26256 0.0010554 2.82275 -0.103709 2.48309 0.111972L0.994407 1.05759C0.592089 1.30857 0.296352 1.71385 0.168455 2.1894C-0.238645 3.76097 -0.320722 7.22779 4.92665 12.7838C10.174 18.3398 13.4479 18.2527 14.9322 17.8216C15.3813 17.6862 15.7641 17.3731 16.0011 16.947L16.8942 15.3708C17.098 15.0112 16.999 14.5455 16.6694 14.3129Z" fill="#FF545F"/>
<path d="M9.67225 2.79303C12.4228 2.79626 14.6519 5.15641 14.655 8.06883C14.655 8.24021 14.7862 8.37918 14.9481 8.37918C15.1099 8.37918 15.2412 8.24024 15.2412 8.06883C15.2378 4.81378 12.7465 2.17594 9.67229 2.17235C9.51042 2.17235 9.37917 2.31129 9.37917 2.48271C9.37914 2.65405 9.51036 2.79303 9.67225 2.79303Z" fill="#FF545F"/>
<path d="M9.67225 4.65505C11.452 4.65727 12.8943 6.18437 12.8963 8.06879C12.8963 8.24017 13.0276 8.37915 13.1895 8.37915C13.3513 8.37915 13.4826 8.24021 13.4826 8.06879C13.4801 5.8417 11.7757 4.03691 9.67225 4.03434C9.51039 4.03434 9.37914 4.17328 9.37914 4.3447C9.37914 4.51612 9.51036 4.65505 9.67225 4.65505Z" fill="#FF545F"/>
<path d="M9.67225 6.51712C10.4812 6.51814 11.1368 7.21225 11.1378 8.06883C11.1378 8.24021 11.269 8.37918 11.4309 8.37918C11.5927 8.37918 11.724 8.24024 11.724 8.06883C11.7227 6.86962 10.8049 5.89781 9.67229 5.89644C9.51042 5.89644 9.37917 6.03538 9.37917 6.2068C9.37914 6.37818 9.51036 6.51712 9.67225 6.51712Z" fill="#FF545F"/>
</svg>
