<svg width="337" height="43" viewBox="0 0 337 43" fill="none" xmlns="http://www.w3.org/2000/svg">
<path d="M3.24078 8.79979H15.6608C18.4688 8.79979 20.9408 9.31579 23.0768 10.3478C25.2368 11.3558 26.9048 12.8078 28.0808 14.7038C29.2808 16.5998 29.8808 18.8318 29.8808 21.3998C29.8808 23.9678 29.2808 26.1998 28.0808 28.0958C26.9048 29.9918 25.2368 31.4558 23.0768 32.4878C20.9408 33.4958 18.4688 33.9998 15.6608 33.9998H3.24078V8.79979ZM15.3008 27.3758C17.1248 27.3758 18.5768 26.8598 19.6568 25.8278C20.7608 24.7718 21.3128 23.2958 21.3128 21.3998C21.3128 19.5038 20.7608 18.0398 19.6568 17.0078C18.5768 15.9518 17.1248 15.4238 15.3008 15.4238H11.7368V27.3758H15.3008ZM0.144775 18.7718H17.0648V23.6678H0.144775V18.7718Z" fill="#AD0316"/>
<path d="M49.7865 29.6078H40.2105L38.5185 33.9998H29.8785L40.8945 8.79979H49.2465L60.2625 33.9998H51.4785L49.7865 29.6078ZM47.4465 23.4878L44.9985 17.1518L42.5505 23.4878H47.4465ZM45.0705 42.1358C44.1345 42.1358 43.3545 41.8478 42.7305 41.2718C42.1305 40.6958 41.8305 39.9398 41.8305 39.0038C41.8305 38.0678 42.1305 37.2998 42.7305 36.6998C43.3545 36.0998 44.1345 35.7998 45.0705 35.7998C46.0065 35.7998 46.7745 36.0998 47.3745 36.6998C47.9985 37.2998 48.3105 38.0678 48.3105 39.0038C48.3105 39.9398 47.9985 40.6958 47.3745 41.2718C46.7745 41.8478 46.0065 42.1358 45.0705 42.1358ZM45.0705 7.10779C42.8865 7.10779 41.1105 6.55579 39.7425 5.45179C38.3745 4.34779 37.6425 2.85979 37.5465 0.987793H42.4065C42.4545 1.65979 42.7185 2.19979 43.1985 2.60779C43.7025 2.99179 44.3265 3.18379 45.0705 3.18379C45.8145 3.18379 46.4265 2.99179 46.9065 2.60779C47.4105 2.19979 47.6865 1.65979 47.7345 0.987793H52.5945C52.4985 2.85979 51.7665 4.34779 50.3985 5.45179C49.0305 6.55579 47.2545 7.10779 45.0705 7.10779Z" fill="#AD0316"/>
<path d="M86.4584 8.79979V33.9998H79.4744L69.8984 22.5518V33.9998H61.6184V8.79979H68.6024L78.1784 20.2478V8.79979H86.4584Z" fill="#AD0316"/>
<path d="M107.22 20.7158H114.6V31.3718C113.112 32.4038 111.384 33.1958 109.416 33.7478C107.448 34.2998 105.516 34.5758 103.62 34.5758C100.932 34.5758 98.52 34.0238 96.384 32.9198C94.248 31.7918 92.568 30.2318 91.344 28.2398C90.144 26.2238 89.544 23.9438 89.544 21.3998C89.544 18.8558 90.144 16.5878 91.344 14.5958C92.568 12.5798 94.26 11.0198 96.42 9.91579C98.604 8.78779 101.064 8.22379 103.8 8.22379C106.272 8.22379 108.48 8.64379 110.424 9.48379C112.392 10.2998 114.024 11.4998 115.32 13.0838L109.884 17.8718C108.3 16.0238 106.416 15.0998 104.232 15.0998C102.36 15.0998 100.872 15.6638 99.768 16.7918C98.664 17.9198 98.112 19.4558 98.112 21.3998C98.112 23.2958 98.652 24.8198 99.732 25.9718C100.836 27.1238 102.3 27.6998 104.124 27.6998C105.204 27.6998 106.236 27.4958 107.22 27.0878V20.7158Z" fill="#AD0316"/>
<path d="M153.853 8.79979V33.9998H146.869L137.293 22.5518V33.9998H129.013V8.79979H135.997L145.573 20.2478V8.79979H153.853Z" fill="#AD0316"/>
<path d="M174.615 20.7158H181.995V31.3718C180.507 32.4038 178.779 33.1958 176.811 33.7478C174.843 34.2998 172.911 34.5758 171.015 34.5758C168.327 34.5758 165.915 34.0238 163.779 32.9198C161.643 31.7918 159.963 30.2318 158.739 28.2398C157.539 26.2238 156.939 23.9438 156.939 21.3998C156.939 18.8558 157.539 16.5878 158.739 14.5958C159.963 12.5798 161.655 11.0198 163.815 9.91579C165.999 8.78779 168.459 8.22379 171.195 8.22379C173.667 8.22379 175.875 8.64379 177.819 9.48379C179.787 10.2998 181.419 11.4998 182.715 13.0838L177.279 17.8718C175.695 16.0238 173.811 15.0998 171.627 15.0998C169.755 15.0998 168.267 15.6638 167.163 16.7918C166.059 17.9198 165.507 19.4558 165.507 21.3998C165.507 23.2958 166.047 24.8198 167.127 25.9718C168.231 27.1238 169.695 27.6998 171.519 27.6998C172.599 27.6998 173.631 27.4958 174.615 27.0878V20.7158Z" fill="#AD0316"/>
<path d="M198.827 34.5758C196.115 34.5758 193.679 34.0118 191.519 32.8838C189.359 31.7558 187.667 30.1958 186.443 28.2038C185.219 26.1878 184.607 23.9198 184.607 21.3998C184.607 18.8798 185.219 16.6238 186.443 14.6318C187.667 12.6158 189.359 11.0438 191.519 9.91579C193.679 8.78779 196.115 8.22379 198.827 8.22379C201.539 8.22379 203.975 8.78779 206.135 9.91579C208.295 11.0438 209.987 12.6158 211.211 14.6318C212.435 16.6238 213.047 18.8798 213.047 21.3998C213.047 23.9198 212.435 26.1878 211.211 28.2038C209.987 30.1958 208.295 31.7558 206.135 32.8838C203.975 34.0118 201.539 34.5758 198.827 34.5758ZM198.827 27.6998C199.883 27.6998 200.831 27.4478 201.671 26.9438C202.535 26.4158 203.219 25.6838 203.723 24.7478C204.227 23.7878 204.479 22.6718 204.479 21.3998C204.479 20.1278 204.227 19.0238 203.723 18.0878C203.219 17.1278 202.535 16.3958 201.671 15.8918C200.831 15.3638 199.883 15.0998 198.827 15.0998C197.771 15.0998 196.811 15.3638 195.947 15.8918C195.107 16.3958 194.435 17.1278 193.931 18.0878C193.427 19.0238 193.175 20.1278 193.175 21.3998C193.175 22.6718 193.427 23.7878 193.931 24.7478C194.435 25.6838 195.107 26.4158 195.947 26.9438C196.811 27.4478 197.771 27.6998 198.827 27.6998ZM198.827 42.1358C197.891 42.1358 197.111 41.8478 196.487 41.2718C195.887 40.6958 195.587 39.9398 195.587 39.0038C195.587 38.0678 195.887 37.2998 196.487 36.6998C197.111 36.0998 197.891 35.7998 198.827 35.7998C199.763 35.7998 200.531 36.0998 201.131 36.6998C201.755 37.2998 202.067 38.0678 202.067 39.0038C202.067 39.9398 201.755 40.6958 201.131 41.2718C200.531 41.8478 199.763 42.1358 198.827 42.1358Z" fill="#AD0316"/>
<path d="M229.162 34.5758C226.498 34.5758 224.098 34.0238 221.962 32.9198C219.826 31.7918 218.146 30.2318 216.922 28.2398C215.722 26.2238 215.122 23.9438 215.122 21.3998C215.122 18.8558 215.722 16.5878 216.922 14.5958C218.146 12.5798 219.826 11.0198 221.962 9.91579C224.098 8.78779 226.498 8.22379 229.162 8.22379C231.61 8.22379 233.794 8.65579 235.714 9.51979C237.634 10.3838 239.218 11.6318 240.466 13.2638L235.102 18.0518C233.542 16.0838 231.706 15.0998 229.594 15.0998C227.818 15.0998 226.39 15.6758 225.31 16.8278C224.23 17.9558 223.69 19.4798 223.69 21.3998C223.69 23.3198 224.23 24.8558 225.31 26.0078C226.39 27.1358 227.818 27.6998 229.594 27.6998C231.706 27.6998 233.542 26.7158 235.102 24.7478L240.466 29.5358C239.218 31.1678 237.634 32.4158 235.714 33.2798C233.794 34.1438 231.61 34.5758 229.162 34.5758Z" fill="#AD0316"/>
<path d="M270.884 29.6078H261.308L259.616 33.9998H250.976L261.992 8.79979H270.344L281.36 33.9998H272.576L270.884 29.6078ZM268.544 23.4878L266.096 17.1518L263.648 23.4878H268.544Z" fill="#AD0316"/>
<path d="M307.556 8.79979V33.9998H300.572L290.996 22.5518V33.9998H282.716V8.79979H289.7L299.276 20.2478V8.79979H307.556Z" fill="#AD0316"/>
<path d="M336.49 8.79979V33.9998H327.994V24.7118H320.146V33.9998H311.65V8.79979H320.146V17.7278H327.994V8.79979H336.49Z" fill="#AD0316"/>
</svg>
